<?xml version="1.0"?>
<svg xmlns="http://www.w3.org/2000/svg" xmlns:xlink="http://www.w3.org/1999/xlink" xmlns:svgjs="http://svgjs.com/svgjs" version="1.1" width="512" height="512" x="0" y="0" viewBox="0 0 512 512" style="enable-background:new 0 0 512 512" xml:space="preserve"><g transform="matrix(-1,-1.2246467991473532e-16,1.2246467991473532e-16,-1,511.9999999999999,511.9999542236329)"><g xmlns="http://www.w3.org/2000/svg"><g><g><g><g><g><path d="m15.002 512c-3.916.001-7.75-1.534-10.608-4.394-4.018-4.018-5.42-9.96-3.624-15.35l35.241-105.724c-23.581-39.624-36.011-84.598-36.011-130.532 0-68.381 26.629-132.668 74.981-181.02s112.639-74.98 181.019-74.98 132.667 26.629 181.02 74.98c48.351 48.352 74.98 112.639 74.98 181.02 0 68.38-26.629 132.667-74.98 181.02-48.353 48.351-112.64 74.98-181.02 74.98-45.933 0-90.907-12.43-130.533-36.011l-105.724 35.242c-1.553.517-3.154.769-4.741.769z" fill="#e9f7ff" data-original="#e9f7ff" style=""/></g></g></g></g></g><g><path d="m256 0v512c68.38 0 132.667-26.629 181.02-74.98 48.351-48.353 74.98-112.64 74.98-181.02 0-68.381-26.629-132.668-74.98-181.02-48.353-48.351-112.64-74.98-181.02-74.98z" fill="#dce6f5" data-original="#dce6f5" style=""/></g><g><path d="m346 161h-40c-19.299 0-35 15.701-35 35v40c0 19.299 15.701 35 35 35h43.234c-6.792 28.63-32.556 50-63.234 50-8.284 0-15 6.716-15 15s6.716 15 15 15c52.383 0 95-42.617 95-95v-60c0-19.299-15.701-35-35-35z" fill="#08475e" data-original="#08475e" style=""/><path d="m206 161h-40c-19.299 0-35 15.701-35 35v40c0 19.299 15.701 35 35 35h43.234c-6.792 28.63-32.556 50-63.234 50-8.284 0-15 6.716-15 15s6.716 15 15 15c52.383 0 95-42.617 95-95v-60c0-19.299-15.701-35-35-35z" fill="#0a617d" data-original="#0a617d" style=""/></g></g></g></svg>
